<svg width="477" height="393" viewBox="0 0 477 393" fill="none" xmlns="http://www.w3.org/2000/svg">
<path d="M0 279C38 273 126 242 134.5 215C149.5 221.5 281 270 298.5 269C297.389 275.666 292.021 282.281 284 288.62L316.5 296.855L318.12 323.855V347.5L182 393L0 335V310V279Z" fill="#378DCC"/>
<path d="M134.5 215C126 242 38 273 0 279L182 332.5C219.667 322.167 294 296 298.5 269C281 270 149.5 221.5 134.5 215Z" fill="white"/>
<path d="M134.5 215C126 242 38 273 0 279L182 332.5C219.667 322.167 294 296 298.5 269C281 270 149.5 221.5 134.5 215Z" fill="#378DCC" fill-opacity="0.6"/>
<path d="M168 70C147.6 81.2 138.5 115.5 111 135.5C128.667 172.167 187.8 237.8 283 207C302.5 178 300 176 331 144C254 174.348 179.5 101.999 168 70Z" fill="white"/>
<path d="M168 70C147.6 81.2 138.5 115.5 111 135.5C128.667 172.167 187.8 237.8 283 207C302.5 178 300 176 331 144C254 174.348 179.5 101.999 168 70Z" fill="#378DCC" fill-opacity="0.6"/>
<path d="M374.908 156.397L465.9 128C479.285 164.838 487.917 224.249 447 236.446C441.648 238.221 363.608 264.662 352.309 268.211C330.304 271.17 312.463 265.451 297 256.971C308.498 253.224 342.793 242.654 387.992 230.348C402.5 213.5 381.846 171.385 374.908 156.397Z" fill="#378DCC"/>
<path d="M465.9 128L374.908 156.397C381.846 171.385 402.5 213.5 387.992 230.348C493.138 266.318 483.741 177.104 465.9 128Z" fill="#378DCC"/>
<path d="M465.9 128L374.908 156.397C381.846 171.385 402.5 213.5 387.992 230.348C493.138 266.318 483.741 177.104 465.9 128Z" fill="white" fill-opacity="0.4"/>
<path d="M209.038 0L271.538 42C275.205 50.3333 291.5 66.7543 303.5 73.2543C319.327 75.2768 337.567 76.4408 358.538 76.5L418.038 99C387.038 98.8509 311.5 83.2965 303.5 73.2543C212.458 61.6207 201.229 21.5815 209.038 0Z" fill="#378DCC"/>
<path d="M271.538 42L209.038 0C201.229 21.5815 212.458 61.6207 303.5 73.2543C291.5 66.7543 275.205 50.3333 271.538 42Z" fill="white"/>
<path d="M271.538 42L209.038 0C201.229 21.5815 212.458 61.6207 303.5 73.2543C291.5 66.7543 275.205 50.3333 271.538 42Z" fill="#378DCC" fill-opacity="0.6"/>
</svg>
