<svg width="204" height="184" viewBox="0 0 204 184" fill="none" xmlns="http://www.w3.org/2000/svg">
<path d="M39.6323 122.982L84.1319 0L203.632 24C195.297 47.6145 187.73 73.3537 179.578 97C153.535 178.2 126.632 187.842 97.1323 182C74.5386 177.525 42.118 162.888 16.1323 150.5C-0.267675 144.1 -0.368236 116.667 0.131764 107C6.30537 109.724 21.0347 115.563 39.6323 122.982Z" fill="white"/>
<path d="M84.1319 0L39.6323 122.982L91.6318 144C90.1318 178 117.512 184.824 133.632 175.5C153.455 164.034 167.191 132.934 179.578 97C187.73 73.3537 195.297 47.6145 203.632 24L84.1319 0Z" fill="#F3F3F3"/>
</svg>
